<svg width="20" height="20" viewBox="0 0 20 20" fill="none" xmlns="http://www.w3.org/2000/svg">
<rect width="20" height="20" rx="10" fill="#384353"/>
<path d="M9.9993 14.668C8.9273 14.668 8.1273 14.268 7.5993 13.468C7.0713 12.66 6.8073 11.624 6.8073 10.36C6.8073 9.088 7.0713 8.052 7.5993 7.252C8.1273 6.444 8.9273 6.04 9.9993 6.04C11.0713 6.04 11.8713 6.444 12.3993 7.252C12.9273 8.052 13.1913 9.088 13.1913 10.36C13.1913 11.624 12.9273 12.66 12.3993 13.468C11.8713 14.268 11.0713 14.668 9.9993 14.668ZM9.9993 13.708C10.7353 13.708 11.2713 13.396 11.6073 12.772C11.9433 12.148 12.1113 11.344 12.1113 10.36C12.1113 9.376 11.9433 8.572 11.6073 7.948C11.2713 7.316 10.7353 7 9.9993 7C9.2633 7 8.7273 7.316 8.3913 7.948C8.0553 8.572 7.8873 9.376 7.8873 10.36C7.8873 11.344 8.0553 12.148 8.3913 12.772C8.7273 13.396 9.2633 13.708 9.9993 13.708Z" fill="#FCFDFD"/>
</svg>
